<svg width="36" height="48" viewBox="0 0 36 48" fill="none" xmlns="http://www.w3.org/2000/svg">
<g clip-path="url(#clip0_4063_27582)">
<path d="M36 14.65V44.8C36 45.92 36 46.48 35.78 46.91C35.59 47.28 35.28 47.59 34.91 47.78C34.48 48 33.92 48 32.8 48H3.2C2.08 48 1.52 48 1.09 47.78C0.72 47.59 0.41 47.28 0.22 46.91C0 46.48 0 45.92 0 44.8V3.2C0 2.08 0 1.52 0.22 1.09C0.41 0.72 0.72 0.41 1.09 0.22C1.52 0 2.08 0 3.2 0H21.35C22.33 0 22.82 0 23.28 0.11C23.53 0.17 23.77 0.25 24 0.36V8.8C24 9.92 24 10.48 24.22 10.91C24.41 11.28 24.72 11.59 25.09 11.78C25.52 12 26.08 12 27.2 12H35.64C35.75 12.23 35.83 12.47 35.89 12.72C36 13.18 36 13.67 36 14.65Z" fill="#A5F3FC"/>
<path d="M34.13 10.13C34.82 10.82 35.16 11.16 35.41 11.57C35.5 11.71 35.57 11.85 35.64 12H27.2C26.08 12 25.52 12 25.09 11.78C24.72 11.59 24.41 11.28 24.22 10.91C24 10.48 24 9.92 24 8.8V0.359985C24.15 0.429985 24.29 0.499985 24.43 0.589985C24.84 0.839985 25.18 1.17998 25.87 1.86998L34.13 10.13Z" fill="#06B6D4"/>
<path fill-rule="evenodd" clip-rule="evenodd" d="M11.85 20.23C12.18 20.09 12.51 20.04 12.84 20.02C13.15 20 13.53 20 13.97 20H14V22C13.52 22 13.21 22 12.98 22.01C12.75 22.03 12.66 22.05 12.62 22.07C12.38 22.17 12.18 22.37 12.08 22.61C12.06 22.66 12.04 22.74 12.02 22.97C12 23.21 12 23.52 12 24V27.03C12 27.47 12 27.85 11.98 28.16C11.95 28.49 11.91 28.82 11.77 29.15C11.64 29.47 11.45 29.75 11.22 30C11.45 30.25 11.64 30.53 11.77 30.85C11.91 31.18 11.96 31.51 11.98 31.84C12 32.15 12 32.53 12 32.97V36C12 36.48 12 36.79 12.01 37.02C12.03 37.25 12.05 37.34 12.07 37.38C12.17 37.62 12.37 37.82 12.61 37.92C12.66 37.94 12.74 37.96 12.97 37.98C13.21 38 13.52 38 14 38V40H13.97C13.53 40 13.15 40 12.84 39.98C12.51 39.95 12.18 39.91 11.85 39.77C11.12 39.47 10.53 38.89 10.23 38.15C10.09 37.82 10.04 37.49 10.02 37.16C10 36.85 10 36.47 10 36.03V33C10 32.52 10 32.21 9.99 31.98C9.97 31.75 9.95 31.66 9.93 31.62C9.83 31.38 9.63 31.18 9.39 31.08C9.34 31.06 9.26 31.04 9.03 31.02C8.79 31 8.48 31 8 31V29C8.48 29 8.79 29 9.02 28.99C9.25 28.97 9.34 28.95 9.38 28.93C9.62 28.83 9.82 28.64 9.92 28.39C9.94 28.34 9.96 28.26 9.98 28.03C10 27.79 10 27.48 10 27V23.97C10 23.53 10 23.15 10.02 22.84C10.05 22.51 10.09 22.18 10.23 21.85C10.53 21.12 11.11 20.53 11.85 20.23ZM26.61 28.92C26.66 28.94 26.74 28.96 26.97 28.98C27.21 29 27.52 29 28 29V31C27.52 31 27.21 31 26.98 31.01C26.75 31.03 26.66 31.05 26.62 31.07C26.38 31.17 26.18 31.37 26.08 31.61C26.06 31.66 26.04 31.74 26.02 31.97C26 32.21 26 32.52 26 33V36.03C26 36.47 26 36.85 25.98 37.16C25.95 37.49 25.91 37.82 25.77 38.15C25.47 38.88 24.88 39.47 24.15 39.77C23.82 39.91 23.49 39.96 23.16 39.98C22.85 40 22.47 40 22.03 40H22V38C22.48 38 22.79 38 23.02 37.99C23.25 37.97 23.34 37.95 23.38 37.93C23.62 37.83 23.82 37.64 23.92 37.39C23.94 37.34 23.96 37.26 23.98 37.03C24 36.79 24 36.48 24 36V32.97C24 32.53 24 32.15 24.02 31.84C24.05 31.51 24.1 31.18 24.23 30.85C24.36 30.53 24.55 30.25 24.78 30C24.55 29.75 24.36 29.47 24.23 29.15C24.09 28.82 24.04 28.49 24.02 28.16C24 27.85 24 27.47 24 27.03V24C24 23.52 24 23.21 23.99 22.98C23.97 22.75 23.95 22.66 23.93 22.62C23.83 22.38 23.63 22.18 23.39 22.08C23.34 22.06 23.26 22.04 23.03 22.02C22.79 22 22.48 22 22 22V20H22.03C22.47 20 22.85 20 23.16 20.02C23.49 20.05 23.82 20.09 24.15 20.23C24.88 20.53 25.47 21.11 25.77 21.85C25.91 22.18 25.96 22.51 25.98 22.84C26 23.15 26 23.53 26 23.97V27C26 27.48 26 27.79 26.01 28.02C26.03 28.25 26.05 28.34 26.07 28.38C26.17 28.62 26.37 28.82 26.61 28.92Z" fill="#0891B2"/>
</g>
<defs>
<clipPath id="clip0_4063_27582">
<rect width="36" height="48" fill="white"/>
</clipPath>
</defs>
</svg>
