<svg width="36" height="48" viewBox="0 0 36 48" fill="none" xmlns="http://www.w3.org/2000/svg">
<g clip-path="url(#clip0_4174_31552)">
<path d="M36 14.65V44.8C36 45.92 36 46.48 35.78 46.91C35.59 47.28 35.28 47.59 34.91 47.78C34.48 48 33.92 48 32.8 48H3.2C2.08 48 1.52 48 1.09 47.78C0.72 47.59 0.41 47.28 0.22 46.91C0 46.48 0 45.92 0 44.8V3.2C0 2.08 0 1.52 0.22 1.09C0.41 0.72 0.72 0.41 1.09 0.22C1.52 0 2.08 0 3.2 0H21.35C22.33 0 22.82 0 23.28 0.11C23.53 0.17 23.77 0.25 24 0.36V8.8C24 9.92 24 10.48 24.22 10.91C24.41 11.28 24.72 11.59 25.09 11.78C25.52 12 26.08 12 27.2 12H35.64C35.75 12.23 35.83 12.47 35.89 12.72C36 13.18 36 13.67 36 14.65V14.65Z" fill="#A5F3FC"/>
<path d="M34.13 10.13C34.82 10.82 35.16 11.16 35.41 11.57C35.5 11.71 35.57 11.85 35.64 12H27.2C26.08 12 25.52 12 25.09 11.78C24.72 11.59 24.41 11.28 24.22 10.91C24 10.48 24 9.92 24 8.8V0.359985C24.15 0.429985 24.29 0.499985 24.43 0.589985C24.84 0.839985 25.18 1.17998 25.87 1.86998L34.13 10.13Z" fill="#06B6D4"/>
</g>
<defs>
<clipPath id="clip0_4174_31552">
<rect width="36" height="48" fill="white"/>
</clipPath>
</defs>
</svg>
