<svg width="36" height="48" viewBox="0 0 36 48" fill="none" xmlns="http://www.w3.org/2000/svg">
<g clip-path="url(#clip0_4063_27571)">
<path d="M36 14.65V44.8C36 45.92 36 46.48 35.78 46.91C35.59 47.28 35.28 47.59 34.91 47.78C34.48 48 33.92 48 32.8 48H3.2C2.08 48 1.52 48 1.09 47.78C0.72 47.59 0.41 47.28 0.22 46.91C0 46.48 0 45.92 0 44.8V3.2C0 2.08 0 1.52 0.22 1.09C0.41 0.72 0.72 0.41 1.09 0.22C1.52 0 2.08 0 3.2 0H21.35C22.33 0 22.82 0 23.28 0.11C23.53 0.17 23.77 0.25 24 0.36V8.8C24 9.92 24 10.48 24.22 10.91C24.41 11.28 24.72 11.59 25.09 11.78C25.52 12 26.08 12 27.2 12H35.64C35.75 12.23 35.83 12.47 35.89 12.72C36 13.18 36 13.67 36 14.65Z" fill="#A5F3FC"/>
<path d="M34.13 10.13C34.82 10.82 35.16 11.16 35.41 11.57C35.5 11.71 35.57 11.85 35.64 12H27.2C26.08 12 25.52 12 25.09 11.78C24.72 11.59 24.41 11.28 24.22 10.91C24 10.48 24 9.92 24 8.8V0.359985C24.15 0.429985 24.29 0.499985 24.43 0.589985C24.84 0.839985 25.18 1.17998 25.87 1.86998L34.13 10.13Z" fill="#06B6D4"/>
<path fill-rule="evenodd" clip-rule="evenodd" d="M17.38 21.08C17.01 20.93 16.58 21.01 16.29 21.3L12 26H9C8.45 26 8 26.45 8 27V33C8 33.55 8.45 34 9 34H12L16.29 38.71C16.58 39 17.01 39.08 17.38 38.93C17.76 38.77 18 38.4 18 38V22C18 21.6 17.76 21.23 17.38 21.08ZM20 23V25C22.76 25 25 27.24 25 30C25 32.76 22.76 35 20 35V37C23.86 37 27 33.86 27 30C27 26.14 23.86 23 20 23ZM20 27C21.65 27 23 28.35 23 30C23 31.65 21.65 33 20 33V31C20.55 31 21 30.55 21 30C21 29.45 20.55 29 20 29V27Z" fill="#0891B2"/>
</g>
<defs>
<clipPath id="clip0_4063_27571">
<rect width="36" height="48" fill="white"/>
</clipPath>
</defs>
</svg>
