<svg width="36" height="48" viewBox="0 0 36 48" fill="none" xmlns="http://www.w3.org/2000/svg">
<g clip-path="url(#clip0_4063_27560)">
<path d="M36 14.65V44.8C36 45.92 36 46.48 35.78 46.91C35.59 47.28 35.28 47.59 34.91 47.78C34.48 48 33.92 48 32.8 48H3.2C2.08 48 1.52 48 1.09 47.78C0.719998 47.59 0.409999 47.28 0.22 46.91C-2.83122e-07 46.48 -1.94633e-07 45.92 3.66897e-10 44.8L7.27537e-06 3.2C7.47037e-06 2.08 7.56979e-06 1.52 0.220008 1.09C0.410008 0.719999 0.720008 0.409999 1.09001 0.219999C1.52001 -2.98023e-07 2.08001 -1.94633e-07 3.20001 3.66912e-10L21.35 3.17537e-06C22.33 3.34537e-06 22.82 3.43472e-06 23.28 0.110003C23.53 0.170003 23.77 0.250003 24 0.360003V8.8C24 9.92 24 10.48 24.22 10.91C24.41 11.28 24.72 11.59 25.09 11.78C25.52 12 26.08 12 27.2 12H35.64C35.75 12.23 35.83 12.47 35.89 12.72C36 13.18 36 13.67 36 14.65Z" fill="#A5F3FC"/>
<path d="M34.13 10.13C34.82 10.82 35.16 11.16 35.41 11.57C35.5 11.71 35.57 11.85 35.64 12H27.2C26.08 12 25.52 12 25.09 11.78C24.72 11.59 24.41 11.28 24.22 10.91C24 10.48 24 9.92 24 8.8V0.359985C24.15 0.429985 24.29 0.499985 24.43 0.589985C24.84 0.839985 25.18 1.17998 25.87 1.86998L34.13 10.13Z" fill="#06B6D4"/>
<path fill-rule="evenodd" clip-rule="evenodd" d="M16 24C16 26.2092 14.2092 28 12 28C9.79085 28 8 26.2092 8 24C8 21.7908 9.79085 20 12 20C14.2092 20 16 21.7908 16 24ZM16.824 35.763L22 27.999L28 39.999H8L14 31.999L16.824 35.763Z" fill="#0891B2"/>
</g>
<defs>
<clipPath id="clip0_4063_27560">
<rect width="36" height="48" fill="white"/>
</clipPath>
</defs>
</svg>
