<svg width="36" height="48" viewBox="0 0 36 48" fill="none" xmlns="http://www.w3.org/2000/svg">
<g clip-path="url(#clip0_4011_27616)">
<path d="M36 14.65V44.8C36 45.92 36 46.48 35.78 46.91C35.59 47.28 35.28 47.59 34.91 47.78C34.48 48 33.92 48 32.8 48H3.2C2.08 48 1.52 48 1.09 47.78C0.72 47.59 0.41 47.28 0.22 46.91C0 46.48 0 45.92 0 44.8V3.2C0 2.08 0 1.52 0.22 1.09C0.41 0.72 0.72 0.41 1.09 0.22C1.52 0 2.08 0 3.2 0H21.35C22.33 0 22.82 0 23.28 0.11C23.53 0.17 23.77 0.25 24 0.36V8.8C24 9.92 24 10.48 24.22 10.91C24.41 11.28 24.72 11.59 25.09 11.78C25.52 12 26.08 12 27.2 12H35.64C35.75 12.23 35.83 12.47 35.89 12.72C36 13.18 36 13.67 36 14.65Z" fill="#A5F3FC"/>
<path d="M34.13 10.13C34.82 10.82 35.16 11.16 35.41 11.57C35.5 11.71 35.57 11.85 35.64 12H27.2C26.08 12 25.52 12 25.09 11.78C24.72 11.59 24.41 11.28 24.22 10.91C24 10.48 24 9.92 24 8.8V0.359985C24.15 0.429985 24.29 0.499985 24.43 0.589985C24.84 0.839985 25.18 1.17998 25.87 1.86998L34.13 10.13Z" fill="#06B6D4"/>
<path d="M28.0507 32.5454C26.481 30.9454 22.2007 31.6 21.1694 31.7182C20.0378 30.6091 19.0704 29.3546 18.2764 27.9909C18.8422 26.4091 19.1616 24.7546 19.2438 23.0818C19.2438 21.6 18.6414 20 16.953 20C16.3598 20.0182 15.8123 20.3272 15.502 20.8272C14.781 22.0727 15.0821 24.5546 16.2229 27.1C15.4381 29.4272 14.4433 31.6818 13.266 33.8455C11.5137 34.5546 7.83584 36.2091 7.53469 37.9909C7.41604 38.5363 7.60769 39.0909 8.01839 39.4728C8.44729 39.8182 8.97664 40 9.53334 40C11.7693 40 13.9414 36.9818 15.4472 34.4364C17.163 33.8637 18.9152 33.4091 20.6948 33.0728C23.0494 35.0818 25.1029 35.3818 26.1889 35.3818C27.64 35.3818 28.1785 34.7909 28.361 34.2546C28.6256 33.6818 28.507 33 28.0507 32.5454ZM26.5448 33.5546C26.481 33.9727 25.9425 34.3818 24.9751 34.1455C23.8526 33.8546 22.803 33.3273 21.8995 32.6091C22.6844 32.4909 24.4367 32.3091 25.6961 32.5454C26.1798 32.6636 26.6635 32.9545 26.5448 33.5546ZM16.4694 21.3636C16.5697 21.1909 16.7523 21.0818 16.953 21.0637C17.4915 21.0637 17.6193 21.7182 17.6193 22.2454C17.5554 23.5 17.3181 24.7272 16.8983 25.9182C15.9857 23.5545 16.1682 21.8909 16.4694 21.3636ZM16.3507 32.8363C16.8709 31.7545 17.3364 30.6546 17.7379 29.5273C18.2946 30.4 18.9426 31.2091 19.6727 31.9545C19.6636 32.0091 17.7927 32.3636 16.3507 32.8363ZM12.7914 35.2091C11.4042 37.4545 9.95314 38.8818 9.16829 38.8818C9.04054 38.8728 8.91274 38.8272 8.80324 38.7636C8.62069 38.6454 8.54769 38.4272 8.62069 38.2272C8.80324 37.4 10.373 36.2727 12.7914 35.2091Z" fill="#0891B2"/>
</g>
<defs>
<clipPath id="clip0_4011_27616">
<rect width="36" height="48" fill="white"/>
</clipPath>
</defs>
</svg>
