<svg width="10" height="10" viewBox="0 0 10 10" fill="none" xmlns="http://www.w3.org/2000/svg">
<path fill-rule="evenodd" clip-rule="evenodd" d="M9.24314 2.96725C9.41617 2.86325 9.63569 2.87375 9.79822 2.99425C9.96022 3.11525 10.0342 3.32125 9.98572 3.51725L8.98567 7.51729C8.92972 7.74026 8.72969 7.89626 8.50019 7.89626H1.50018C1.27068 7.89626 1.07068 7.73974 1.01468 7.51729L0.0146791 3.51725C-0.0338159 3.32125 0.0401791 3.11525 0.202179 2.99425C0.365184 2.87425 0.584184 2.86375 0.757682 2.96725L2.84918 4.22225L4.58468 1.61875C4.59654 1.60096 4.61307 1.58921 4.62965 1.57743C4.63964 1.57033 4.64966 1.56321 4.65868 1.55475L4.17718 1.07275C4.08018 0.975748 4.08018 0.816246 4.17718 0.719248L4.82368 0.0727481C4.92068 -0.0242494 5.08018 -0.0242494 5.17718 0.0727481L5.82368 0.719248C5.92068 0.816246 5.92068 0.975748 5.82368 1.07275L5.34218 1.55475C5.3512 1.56338 5.3614 1.57062 5.37161 1.57787C5.38802 1.58951 5.40447 1.60119 5.41618 1.61875L7.15169 4.22225L9.24314 2.96725ZM1.00025 8.39621H9.00022V9.39626H1.00025V8.39621Z" fill="#ECE9FE"/>
</svg>
